<svg width="45" height="36" viewBox="0 0 53 44" fill="white" xmlns="http://www.w3.org/2000/svg">
  <path fill-rule="evenodd" clip-rule="evenodd" d="M27.7422 0.109375H25.2578V0.937498H19.461C18.3176 0.937498 17.3907 1.86441 17.3907 3.00781C17.3907 4.15121 18.3176 5.07812 19.461 5.07812H25.2578V7.97656L23.6015 7.97656H21.1172V10.875V12.9453H16.9765V15.8437H36.0234V12.9453H31.8828L31.8828 7.97656H29.3984L27.7422 7.97656V5.07812H33.5391C34.6825 5.07812 35.6094 4.15121 35.6094 3.00781C35.6094 1.86441 34.6825 0.937498 33.5391 0.937498H27.7422V0.109375ZM29.3984 10.875V12.9453H23.6015V10.875H29.3984ZM0 27.4375H3.3125V44H0V27.4375ZM5.79694 27.4375H9.10944V29.5078H19.4609V28.3888C19.9821 27.5768 20.2844 26.6108 20.2844 25.5742C20.2844 24.5376 19.9821 23.5717 19.4609 22.7597V21.6406H16.9765V18.3281H36.0234V21.6406H33.9531V22.7295C33.4199 23.5477 33.11 24.5248 33.11 25.5742C33.11 26.6236 33.4199 27.6007 33.9531 28.4189V29.5078H43.8906V27.4375H47.2031V44H43.8906V41.9297H9.10941L9.10944 44H5.79694V27.4375ZM53.0001 27.4375H49.6876V44H53.0001V27.4375Z" fill="white"></path>
</svg>