  <svg width="40" height="40" viewBox="0 0 96 96" fill="none" xmlns="http://www.w3.org/2000/svg">
      <path d="M95.7002 34.8H0.200195V95.3H95.7002V34.8Z" fill="#008542" />
      <path d="M95.7002 0H0.200195V23.2H95.7002V0Z" fill="#FDC82F" />
      <path
        d="M95.5 34.7999V23.2H0V34.7999H18.4L8.1 69.9999H29C38 69.9999 39.6 67.8999 41.5 66.3999C43.9 64.2999 45.2 59.3999 44.1 55.9999C43.4 53.5999 41.1 52.2 40.9 52.2C43.6 50.8 45.2 47.8999 45.5 47.4999C46.5 45.2999 47.4 41.4 44.7 38.2C42.6 35.5 38.4 34.7999 35.4 34.7999H57.6L47.4 70.2H57.7L61.5 56.7H67.5C71.7 56.7 71.4 59.3999 71.5 60.4999L71.9 70.3999H81.4C81.4 70.3999 81 59.2999 81 58.4999C80.9 55.6999 79 54.3999 77.4 54.3999C80.4 53.4999 83.1 50.7999 84.1 48.9999C85.4 46.8999 86.4 43.5999 85.1 40.3999C83.4 35.5999 78.7 34.7999 75.6 34.7999H95.5V34.7999ZM65.7 41.8999H73.2C76.7 41.8999 76.9 44.2999 76.9 44.9999C76.9 46.6999 75.5 49.7999 71.1 49.7999H63.5C63.5 49.7999 65.6 41.9999 65.7 41.8999V41.8999ZM22.7 55.2H29.6C33 55.2 33.1 55.9999 33.6 56.8999C34.1 57.6999 33.8 59.2999 33.6 59.8999C33.1 60.4999 32.5 62.7999 28.1 62.7999H20.5L22.7 55.2V55.2ZM26.5 41.8999H34.5C36 41.8999 37.5 42.8999 37.5 44.4999C37.5 46.7999 35.6 48.3999 33.1 48.3999H24.6L26.5 41.8999V41.8999Z"
        fill="white"
      />
    </svg>