<svg width="27" height="26" viewBox="0 0 27 26" fill="#008542" xmlns="http://www.w3.org/2000/svg">
<path fill-rule="evenodd" clip-rule="evenodd" d="M10.318 0.108513L5.67799 13.4555H10.097L12.9695 10.6342L15.3999 12.913L15.0685 13.347H21.4761L26.9999 5.53415H23.7962L18.9352 9.87465L15.2895 0L10.318 0.108513ZM15.3999 8.02994L13.7428 9.76612L16.3942 11.9364L16.9466 11.2853L15.3999 8.02994ZM9.76563 7.92142L11.6438 9.54907L8.10852 12.913L9.76563 7.92142ZM14.8476 6.83628H10.9809L12.9695 8.57246L14.8476 6.83628ZM10.6494 5.42563H14.6266L13.8533 2.27876H11.8647L10.6494 5.42563ZM4.46275 18.7726H0.264648V14.8662H25.0114V18.7726H20.7028V21.7025C20.0841 21.3553 16.8361 21.2684 15.8418 21.7025V18.7726H9.21324V21.9195C8.50621 21.3118 5.12561 21.2684 4.46275 21.9195V18.7726ZM0.994347 24.0894C3.40616 22.6019 7.40784 22.3793 11.5226 24.0435C18.185 20.8974 25.2273 23.722 25.5144 24.0336C25.8443 24.1575 26.0158 24.3795 26.0158 24.7408C26.0158 25.1604 25.5706 25.5004 25.0215 25.5004C24.8046 25.5004 24.6039 25.4473 24.4404 25.3573C21.1166 24.4255 19.0178 24.4255 18.2628 24.4255C16.3192 24.4255 14.8592 24.9167 13.6685 25.3173C12.8488 25.5931 12.1568 25.826 11.5226 25.826C10.8866 25.826 10.0123 25.5706 9.06802 25.2947C7.70267 24.8959 6.19088 24.4543 5.04151 24.6801C3.76504 24.9309 2.82378 25.2913 2.25439 25.5094L2.25434 25.5095C2.04696 25.5889 1.88893 25.6494 1.782 25.6789C1.63873 25.7718 1.46704 25.826 1.28248 25.826C0.781365 25.826 0.375134 25.427 0.375134 24.9347C0.375134 24.7538 0.430006 24.5855 0.524295 24.445C0.517698 24.4383 0.511189 24.4318 0.504772 24.4255C0.530805 24.4056 0.557085 24.3859 0.583598 24.3663C0.690407 24.2397 0.832173 24.1427 0.994347 24.0894Z" fill="#008542"/>
</svg>
