<svg width="44" height="43" viewBox="0 0 51 50" fill="#ffffff" xmlns="http://www.w3.org/2000/svg">
  <path fill-rule="evenodd" clip-rule="evenodd" d="M19.4897 0.208678L10.7252 25.876H19.0723L24.498 20.4504L29.0889 24.8326L28.4628 25.6674H40.5661L51 10.6426H44.9484L35.7666 18.9897L28.8802 0L19.4897 0.208678ZM29.0889 15.4422L25.9587 18.781L30.967 22.9546L32.0104 21.7025L29.0889 15.4422ZM18.4463 15.2335L21.9939 18.3636L15.3162 24.8326L18.4463 15.2335ZM28.0455 13.1467H20.7418L24.498 16.4855L28.0455 13.1467ZM20.1157 10.4339H27.6281L26.1674 4.38223H22.4112L20.1157 10.4339ZM8.42975 36.1012H0.5V28.5888H47.2438V36.1012H39.1054V41.7355C37.9368 41.0678 31.8017 40.9008 29.9236 41.7355V36.1012H17.4029V42.1529C16.0674 40.9843 9.68182 40.9008 8.42975 42.1529V36.1012ZM1.87832 46.3257C6.43396 43.4651 13.9927 43.0372 21.765 46.2375C34.3495 40.1873 47.6516 45.6192 48.1939 46.2185C48.8172 46.4568 49.141 46.8836 49.141 47.5785C49.141 48.3853 48.3001 49.0393 47.2629 49.0393C46.8532 49.0393 46.4741 48.9372 46.1654 48.764C39.887 46.9721 35.9227 46.9721 34.4966 46.9721C30.8253 46.9721 28.0674 47.9168 25.8184 48.6871C24.2701 49.2175 22.9629 49.6653 21.765 49.6653C20.5637 49.6653 18.9123 49.1742 17.1286 48.6437L17.1286 48.6437C14.5496 47.8767 11.694 47.0275 9.52296 47.4617C7.11185 47.944 5.33391 48.6372 4.25841 49.0566L4.2583 49.0567C3.86659 49.2094 3.56808 49.3258 3.3661 49.3824C3.09549 49.5612 2.77118 49.6653 2.42257 49.6653C1.47602 49.6653 0.708695 48.898 0.708695 47.9514C0.708695 47.6035 0.812343 47.2798 0.990444 47.0096C0.977983 46.9967 0.965688 46.9842 0.953567 46.9721C1.00274 46.9338 1.05238 46.8959 1.10246 46.8583C1.30421 46.6149 1.57199 46.4283 1.87832 46.3257Z" fill="white"></path>
</svg>