<svg width="32" height="26" viewBox="0 0 32 26" fill="#008542" xmlns="http://www.w3.org/2000/svg">
<g clip-path="url(#clip0)">
<path fill-rule="evenodd" clip-rule="evenodd" d="M16.5877 0.0646973H15.1196V0.554043H11.6943C11.0186 0.554043 10.4709 1.10176 10.4709 1.77741C10.4709 2.45305 11.0186 3.00077 11.6943 3.00077H15.1196V4.71349H14.1409H12.6729V6.4262V7.64956H10.2261V9.36225H21.4811V7.64956H19.0344V4.71349H17.5664H16.5877V3.00077H20.0131C20.6888 3.00077 21.2365 2.45305 21.2365 1.77741C21.2365 1.10176 20.6888 0.554043 20.0131 0.554043H16.5877V0.0646973ZM17.5664 6.4262V7.64956H14.1409V6.4262H17.5664ZM0.19458 16.2131H2.15197V26.0001H0.19458V16.2131ZM3.62004 16.2131H5.57743V17.4365H11.6942V16.7753C12.0022 16.2954 12.1808 15.7246 12.1808 15.1121C12.1808 14.4996 12.0022 13.9288 11.6942 13.449V12.7877H10.2261V10.8303H21.4811V12.7877H20.2578V13.4311C19.9427 13.9146 19.7596 14.492 19.7596 15.1121C19.7596 15.7322 19.9427 16.3096 20.2578 16.7931V17.4365H26.1299V16.2131H28.0873V26.0001H26.1299V24.7767H5.57741L5.57743 26.0001H3.62004V16.2131ZM31.5128 16.2131H29.5554V26.0001H31.5128V16.2131Z" fill="#008542"/>
</g>
<defs>
<clipPath id="clip0">
<rect width="31.7073" height="26" fill="white"/>
</clipPath>
</defs>
</svg>
