<svg width="150" height="33" viewBox="0 0 217 33" fill="none" xmlns="http://www.w3.org/2000/svg">
<g clip-path="url(#clip0)">
<path d="M0 32.9995V31.7396C0.787814 31.8062 1.57865 31.6528 2.28446 31.2966C2.50891 31.1189 2.68494 30.8874 2.79626 30.6236C2.90758 30.3598 2.9506 30.0722 2.92135 29.7874V3.40545C2.92135 2.49859 2.70674 1.91709 2.28446 1.65403C1.5665 1.33872 0.781787 1.20556 0 1.26637V-0.000475141H10.7093C13.5324 -0.106448 16.3388 0.478129 18.8848 1.7025C21.0262 2.8378 22.0969 5.22379 22.0969 8.86046C22.0969 12.1695 21.1393 14.477 19.224 15.783C17.2547 17.1022 14.9274 17.7837 12.5576 17.7352H7.76023V29.8013C7.73017 30.0855 7.77212 30.3727 7.88221 30.6364C7.9923 30.9001 8.16699 31.1319 8.39019 31.3104C9.09816 31.6676 9.89147 31.821 10.6816 31.7535V33.0134L0 32.9995ZM7.76023 15.2846H12.0453C13.9283 15.2846 15.2366 14.7654 15.9843 13.727C16.7319 12.6886 17.1057 10.8749 17.1057 8.27896C17.1057 5.87451 16.6442 4.29846 15.7212 3.55082C14.7982 2.80318 13.2245 2.43168 11 2.43629H7.76023V15.2846Z" fill="#008542"/>
<path d="M33.7822 33H25.0182V31.7401C25.9101 31.8156 26.8017 31.5915 27.5519 31.1032C28.2309 30.419 28.7097 29.5619 28.9364 28.6249L38.6695 0H42.56L52.3001 28.6249C52.5253 29.483 52.9392 30.28 53.5116 30.9578C54.0031 31.477 54.8961 31.7401 56.1906 31.7401V33H44.976V31.7401C46.2706 31.7401 47.0528 31.477 47.4059 30.9578C47.5823 30.6637 47.669 30.3245 47.6551 29.9817C47.6445 29.5101 47.5604 29.043 47.4059 28.5972L39.4241 4.16049L31.3454 28.5972C31.1583 29.0965 31.0509 29.6221 31.027 30.1548C31.0074 30.4688 31.1035 30.7791 31.297 31.0271C31.657 31.484 32.4807 31.7193 33.7822 31.7193V33Z" fill="#008542"/>
<path d="M87.4185 0V1.23915C86.6475 1.1808 85.875 1.33147 85.1825 1.67528C84.9438 1.84302 84.754 2.07112 84.6324 2.33627C84.5107 2.60141 84.4617 2.89409 84.4902 3.1844V29.6218C84.4902 30.5286 84.7048 31.1171 85.1271 31.3732C85.8433 31.6948 86.629 31.8305 87.4116 31.7678V33.0277H76.7093V31.7678C77.4941 31.8314 78.2823 31.6957 79.0006 31.3732C79.4229 31.1171 79.6306 30.5286 79.6306 29.6218V2.43677H65.0308V29.6218C65.0308 30.5286 65.2385 31.1171 65.6608 31.3732C66.3791 31.6957 67.1673 31.8314 67.9522 31.7678V33.0277H57.2429V31.7678C58.0255 31.8305 58.8112 31.6948 59.5274 31.3732C59.9496 31.1171 60.1643 30.5286 60.1643 29.6218V3.21209C60.1935 2.92729 60.1505 2.6397 60.0392 2.37592C59.9278 2.11215 59.7518 1.8807 59.5274 1.70297C58.8208 1.34944 58.0301 1.19848 57.2429 1.26685V0H87.4185Z" fill="#008542"/>
<path d="M88.3947 33V31.7401C89.1237 31.7698 89.8513 31.6521 90.5337 31.3939C91.0529 31.1724 91.316 30.6324 91.316 29.7879V3.40589C91.316 2.43672 91.0183 1.83445 90.4368 1.60601C89.7832 1.3667 89.0906 1.25166 88.3947 1.26681V-3.81056e-05H101.215C104.691 -0.0350404 108.05 1.25453 110.609 3.60665C113.3 6.00187 114.647 10.7069 114.652 17.7218C114.652 23.6891 113.729 27.7273 111.883 29.8363C111.107 30.812 110.124 31.6023 109.004 32.1496C107.884 32.6969 106.657 32.9874 105.41 33H88.3947ZM96.1826 30.5701H101.437C103.634 30.6452 105.776 29.8774 107.425 28.4241C109.017 26.9981 109.811 23.3983 109.806 17.6249C109.806 12.433 108.964 8.60245 107.279 6.13339C105.595 3.66433 102.902 2.43211 99.2008 2.43673H96.1826V30.5701Z" fill="#008542"/>
<path d="M135.994 -4.3745e-05C138.167 -0.0284306 140.323 0.386664 142.33 1.21986C144.336 2.05306 146.152 3.28684 147.666 4.84577C149.22 6.32975 150.452 8.11757 151.286 10.0981C152.119 12.0786 152.537 14.2094 152.512 16.358C152.528 18.527 152.107 20.6769 151.274 22.6797C150.442 24.6826 149.215 26.4973 147.666 28.0157C146.172 29.61 144.363 30.8763 142.354 31.7344C140.345 32.5924 138.179 33.0234 135.994 33C133.802 33.0429 131.625 32.6209 129.607 31.7618C127.59 30.9028 125.777 29.626 124.288 28.0157C122.768 26.481 121.567 24.6609 120.753 22.6603C119.94 20.6596 119.529 18.5178 119.546 16.358C119.523 14.1958 119.933 12.0507 120.752 10.0496C121.572 8.04843 122.784 6.23179 124.317 4.70693C125.85 3.18207 127.674 1.97993 129.679 1.17148C131.685 0.363035 133.832 -0.0353166 135.994 -4.3745e-05ZM135.025 2.43672C132.104 2.75978 129.54 4.23659 127.334 6.86718C125.354 9.21163 124.364 12.3014 124.364 16.1365C124.364 16.5934 124.364 17.0503 124.413 17.521C124.66 20.9092 126.01 24.1233 128.255 26.6727C129.34 27.9137 130.68 28.9048 132.185 29.5776C133.69 30.2504 135.322 30.5891 136.97 30.5701C140.473 30.3071 143.166 28.911 145.049 26.382C146.821 24.0144 147.705 20.7124 147.7 16.4757C147.7 16.185 147.7 15.8873 147.7 15.5758C147.439 12.0902 146.035 8.78825 143.706 6.18185C142.705 4.99232 141.452 4.03949 140.039 3.39192C138.625 2.74435 137.085 2.41813 135.53 2.43672H135.025ZM128.013 11.623H129.279C129.237 12.2751 129.445 12.9187 129.861 13.4229C130.109 13.6513 130.403 13.8253 130.722 13.9337C131.041 14.0422 131.38 14.0828 131.716 14.0528H140.279C140.965 14.0683 141.636 13.8457 142.176 13.4229C142.598 12.9223 142.804 12.2753 142.751 11.623H144.011V21.3146H142.751C142.775 20.6785 142.566 20.0554 142.162 19.5632C141.925 19.3178 141.636 19.1283 141.316 19.0086C140.997 18.8888 140.654 18.8418 140.314 18.871H131.716C131.387 18.8386 131.054 18.8788 130.742 18.9888C130.43 19.0989 130.146 19.276 129.909 19.5078C129.517 20.0276 129.297 20.6568 129.279 21.3077H128.013V11.623Z" fill="#008542"/>
<path d="M155.468 33V31.7401C156.255 31.8067 157.046 31.6533 157.752 31.2971C157.977 31.1193 158.153 30.8879 158.264 30.6241C158.375 30.3603 158.418 30.0727 158.389 29.7879V3.40594C158.389 2.49908 158.174 1.91758 157.752 1.65452C157.034 1.33921 156.249 1.20605 155.468 1.26686V1.31431e-05H166.177C169 -0.10596 171.806 0.478617 174.352 1.70299C176.494 2.83829 177.565 5.22428 177.565 8.86095C177.565 12.1699 176.72 14.489 175.031 15.8181C173.425 17.0827 172.04 17.7172 170.877 17.7219H170.732L174.886 23.1699L178.098 18.8848H180.825L176.249 25.1152L180.341 29.961C180.844 30.4426 181.399 30.8674 181.995 31.2278C182.665 31.5422 183.394 31.7098 184.134 31.7193V32.9793H173.75V31.7193C174.392 31.8 175.039 31.6233 175.55 31.2278C175.66 31.0988 175.72 30.9338 175.716 30.764C175.679 30.3993 175.537 30.0532 175.308 29.7672L174.041 27.9188L170.441 33H168.108L172.587 26.382L165.865 17.7219H163.242V29.7879C163.212 30.0721 163.254 30.3593 163.364 30.6231C163.474 30.8868 163.648 31.1186 163.872 31.2971C164.58 31.6543 165.373 31.8076 166.163 31.7401V33H155.468ZM163.256 15.2851H167.541C169.414 15.2851 170.727 14.7659 171.48 13.7275C172.232 12.6891 172.606 10.8731 172.601 8.27945C172.601 5.875 172.14 4.29895 171.217 3.55131C170.294 2.80367 168.72 2.43216 166.495 2.43678H163.283L163.256 15.2851Z" fill="#008542"/>
<path d="M194.019 33H185.255V31.7401C186.147 31.8146 187.039 31.5906 187.789 31.1032C188.471 30.4209 188.95 29.5631 189.174 28.6249L198.914 0H202.804L212.537 28.6249C212.767 29.4825 213.183 30.279 213.756 30.9578C214.24 31.477 215.14 31.7401 216.435 31.7401V33H205.213V31.7401C206.508 31.7401 207.29 31.477 207.643 30.9578C207.817 30.663 207.901 30.3238 207.885 29.9817C207.878 29.5104 207.796 29.0432 207.643 28.5972L199.661 4.16049L191.583 28.5972C191.392 29.0956 191.285 29.6217 191.264 30.1548C191.245 30.4688 191.341 30.7791 191.534 31.0271C191.887 31.484 192.718 31.7193 194.019 31.7193V33Z" fill="#008542"/>
</g>
<defs>
<clipPath id="clip0">
<rect width="216.407" height="33" fill="white"/>
</clipPath>
</defs>
</svg>
